<svg width="123" height="123" viewBox="0 0 123 123" fill="none" xmlns="http://www.w3.org/2000/svg">
<circle cx="61.2372" cy="61.2372" r="50" transform="rotate(15 61.2372 61.2372)" fill="#4AB866"/>
<circle cx="61.2373" cy="61.2371" r="43.6206" transform="rotate(15 61.2373 61.2371)" stroke="white" stroke-width="0.774177" stroke-dasharray="3.1 3.1"/>
<path opacity="0.2" d="M78.1213 90.6506C85.6734 86.3154 91.5649 79.0905 93.9968 70.0148C95.1199 65.8232 95.4065 61.6046 94.959 57.5361" stroke="white" stroke-width="0.387088"/>
<path opacity="0.2" d="M31.9086 78.2678C27.5359 70.7373 26.0461 61.5347 28.4779 52.4589C29.3666 49.1426 30.7171 46.0733 32.4419 43.3019" stroke="white" stroke-width="0.387088"/>
<path d="M38.6087 40.5548C38.3053 40.8859 37.9882 41.1273 37.6573 41.2791C37.3244 41.429 36.9984 41.4893 36.6793 41.46C36.3601 41.4308 36.0676 41.313 35.8016 41.1068L35.762 41.0762L36.3716 40.411L36.4051 40.436C36.5531 40.5453 36.7193 40.5999 36.9037 40.5997C37.0861 40.5976 37.276 40.5442 37.4736 40.4395C37.6711 40.3347 37.8616 40.1822 38.0452 39.9819C38.2175 39.7939 38.3405 39.6002 38.4142 39.4008C38.4879 39.2014 38.5111 39.012 38.4837 38.8327C38.4542 38.6515 38.371 38.4982 38.234 38.3727L38.231 38.3699C38.0614 38.2144 37.8613 38.1496 37.6309 38.1753C37.3985 38.1992 37.1158 38.3292 36.7827 38.5654L36.2346 38.9543C35.7283 39.3138 35.2773 39.5002 34.8816 39.5135C34.4858 39.5269 34.1245 39.3837 33.7975 39.084L33.7944 39.0812C33.5429 38.8469 33.3818 38.5733 33.3113 38.2605C33.2426 37.9457 33.2647 37.618 33.3774 37.2776C33.4901 36.9372 33.6888 36.6117 33.9734 36.301C34.2581 35.9904 34.5614 35.7682 34.8832 35.6345C35.2049 35.4969 35.5195 35.4449 35.8271 35.4786C36.1326 35.5104 36.4083 35.624 36.6542 35.8193L36.6968 35.8527L36.0928 36.5118L36.0473 36.4814C35.9079 36.3874 35.7537 36.3382 35.5847 36.3338C35.4158 36.3294 35.243 36.3703 35.0662 36.4565C34.8893 36.5387 34.7194 36.6707 34.5567 36.8524C34.3975 37.0262 34.2817 37.2058 34.2093 37.3915C34.1368 37.5732 34.1141 37.7498 34.1412 37.9212C34.1681 38.0888 34.2521 38.2372 34.3931 38.3664L34.3961 38.3692C34.5596 38.5191 34.7537 38.5822 34.9783 38.5587C35.2048 38.5331 35.4798 38.4054 35.8033 38.1755L36.3545 37.7895C36.7027 37.5408 37.0181 37.3711 37.3006 37.2803C37.585 37.1874 37.8481 37.1691 38.0899 37.2253C38.3296 37.2796 38.5589 37.4069 38.7775 37.6073L38.7806 37.6102C39.0626 37.8686 39.2421 38.161 39.3191 38.4873C39.398 38.8115 39.3775 39.1518 39.2577 39.5082C39.1397 39.8626 38.9234 40.2115 38.6087 40.5548ZM40.5979 38.2905L36.8861 33.5761L39.8754 31.2225L40.3668 31.8465L38.0994 33.6317L39.1926 35.0202L41.3391 33.3302L41.8124 33.9313L39.6659 35.6213L40.8286 37.098L43.096 35.3128L43.5873 35.9369L40.5979 38.2905ZM45.6577 34.691L43.0724 30.1723L41.4302 31.1118L41.0358 30.4225L45.1142 28.0891L45.5086 28.7784L43.8664 29.718L46.4517 34.2367L45.6577 34.691ZM50.9851 32.393C50.5128 32.5624 50.0744 32.6211 49.6699 32.569C49.2653 32.5168 48.9147 32.3687 48.618 32.1247C48.3204 31.8781 48.0972 31.5473 47.9483 31.1325L46.6196 27.43L47.4845 27.1196L48.7894 30.7555C48.8877 31.0295 49.0304 31.2507 49.2175 31.4192C49.4037 31.5851 49.6235 31.6888 49.877 31.7303C50.1295 31.7693 50.4071 31.7345 50.7098 31.6259C51.0098 31.5182 51.2449 31.369 51.4151 31.1784C51.5843 30.9851 51.6867 30.7657 51.7223 30.5203C51.7596 30.2713 51.7291 30.0098 51.6308 29.7358L50.3259 26.0999L51.187 25.7909L52.5157 29.4934C52.6646 29.9082 52.7039 30.305 52.6336 30.6836C52.5624 31.0597 52.3872 31.3964 52.1082 31.6939C51.8317 31.9905 51.4573 32.2235 50.9851 32.393ZM54.2465 29.0918L54.1182 28.3333L55.7418 28.0588C56.1409 27.9913 56.4335 27.835 56.6198 27.5898C56.8061 27.3446 56.868 27.0375 56.8056 26.6685L56.8042 26.6603C56.7409 26.2859 56.5812 26.0149 56.3251 25.8473C56.0691 25.6797 55.7415 25.6297 55.3424 25.6972L53.7188 25.9718L53.5892 25.2051L55.4383 24.8924C55.8237 24.8272 56.1762 24.8505 56.496 24.9623C56.8184 25.0737 57.0878 25.2615 57.304 25.5257C57.5197 25.7873 57.6601 26.1107 57.7253 26.4961L57.7267 26.5043C57.7919 26.8897 57.7658 27.2427 57.6486 27.5634C57.5313 27.8841 57.3389 28.1514 57.0715 28.3653C56.8063 28.576 56.481 28.714 56.0956 28.7791L54.2465 29.0918ZM54.1387 31.1976L53.1382 25.2813L54.0443 25.1281L55.0448 31.0444L54.1387 31.1976ZM63.6286 30.7003C63.073 30.6586 62.6029 30.4954 62.2184 30.2107C61.8339 29.9261 61.55 29.542 61.3667 29.0584C61.1834 28.5749 61.116 28.011 61.1644 27.3669L61.165 27.3586C61.2136 26.7118 61.3646 26.163 61.6181 25.7122C61.8716 25.2614 62.2083 24.924 62.6282 24.6997C63.0509 24.4757 63.54 24.3846 64.0957 24.4263C64.5324 24.4591 64.9213 24.5745 65.2623 24.7725C65.606 24.9707 65.8798 25.2303 66.0836 25.5514C66.2874 25.8725 66.4009 26.2313 66.4239 26.6278L66.4179 26.6523L65.514 26.5845L65.5111 26.5676C65.4715 26.3172 65.3838 26.0965 65.248 25.9056C65.1152 25.7122 64.9448 25.5576 64.7366 25.4419C64.5312 25.3264 64.2972 25.2588 64.0346 25.239C63.6753 25.2121 63.3571 25.2841 63.0802 25.4551C62.8034 25.6233 62.5802 25.8748 62.4105 26.2096C62.2436 26.5445 62.1422 26.9511 62.1062 27.4293L62.1056 27.4376C62.0701 27.9103 62.1098 28.3261 62.2246 28.685C62.3424 29.0414 62.5254 29.3248 62.7737 29.5352C63.0222 29.7429 63.3275 29.8604 63.6896 29.8876C63.955 29.9075 64.1975 29.8812 64.4169 29.8088C64.6392 29.7365 64.8283 29.6242 64.9843 29.4719C65.1433 29.3171 65.2588 29.1298 65.3309 28.91L65.3408 28.8899L66.2489 28.9581L66.247 28.983C66.1603 29.3601 65.9943 29.6826 65.749 29.9505C65.5037 30.2184 65.1995 30.4194 64.8364 30.5533C64.4763 30.6847 64.0737 30.7337 63.6286 30.7003ZM69.1812 31.6792C68.6217 31.529 68.1728 31.2765 67.8346 30.9217C67.4998 30.565 67.2837 30.1296 67.1863 29.6155C67.0915 29.1021 67.1271 28.5362 67.2931 27.9177L67.2952 27.9097C67.4626 27.2859 67.7168 26.7772 68.0578 26.3836C68.3987 25.99 68.8044 25.7243 69.2748 25.5865C69.7479 25.4494 70.2602 25.4548 70.8117 25.6028C71.3686 25.7522 71.8162 26.0044 72.1543 26.3592C72.4925 26.714 72.709 27.148 72.8037 27.6614C72.9019 28.1728 72.8676 28.7391 72.7009 29.3602L72.6988 29.3682C72.5328 29.9867 72.2803 30.4945 71.9413 30.8914C71.603 31.2857 71.1984 31.5531 70.7273 31.6936C70.2561 31.8341 69.7408 31.8293 69.1812 31.6792ZM69.3924 30.892C69.7619 30.9912 70.1053 30.9843 70.4226 30.8714C70.7407 30.7558 71.0172 30.5487 71.2523 30.2502C71.4901 29.9523 71.6697 29.5772 71.7911 29.1247L71.7933 29.1167C71.9161 28.6588 71.9488 28.2428 71.8914 27.8686C71.8373 27.4925 71.7009 27.1775 71.482 26.9235C71.2638 26.667 70.97 26.4891 70.6005 26.39C70.2337 26.2915 69.8916 26.2988 69.5743 26.4117C69.2577 26.5219 68.9805 26.7259 68.7428 27.0238C68.5057 27.3189 68.3257 27.6954 68.2029 28.1533L68.2007 28.1613C68.0793 28.6138 68.0443 29.0277 68.0957 29.4032C68.1497 29.7793 68.2855 30.097 68.5029 30.3563C68.7238 30.6136 69.0203 30.7922 69.3924 30.892ZM72.4891 32.5101L75.211 27.1628L76.156 27.6438L75.6893 32.7954L75.7523 32.8274L79.643 29.4188L80.5843 29.8979L77.8624 35.2453L77.1138 34.8642L79.1171 30.9288L78.7168 30.725L80.2161 29.8971L75.4796 34.0324L74.8719 33.723L75.432 27.4619L75.6411 29.1594L75.2409 28.9557L73.2376 32.8912L72.4891 32.5101ZM80.2527 34.3928L80.7265 33.7868L82.0237 34.8009C82.3426 35.0502 82.6553 35.161 82.962 35.1333C83.2686 35.1056 83.5372 34.9444 83.7677 34.6495L83.7728 34.643C84.0067 34.3438 84.0993 34.0431 84.0504 33.741C84.0016 33.4389 83.8177 33.1633 83.4989 32.914L82.2016 31.8998L82.6805 31.2872L84.1579 32.4422C84.4659 32.683 84.6863 32.9591 84.8193 33.2707C84.9544 33.5839 84.9972 33.9094 84.9478 34.2473C84.9 34.5829 84.7558 34.9047 84.515 35.2126L84.5099 35.2192C84.2692 35.5271 83.9909 35.7459 83.6749 35.8754C83.359 36.0049 83.0319 36.043 82.6936 35.9897C82.3592 35.9358 82.038 35.7886 81.7301 35.5478L80.2527 34.3928ZM78.6246 35.7327L82.3202 31.0055L83.0441 31.5715L79.3486 36.2987L78.6246 35.7327ZM82.5492 38.9025L86.9285 34.8007L87.5567 35.4714L83.7571 39.0303L85.6844 41.0879L85.1047 41.6308L82.5492 38.9025ZM85.5425 42.2122L90.476 38.7971L92.6415 41.9255L91.9885 42.3775L90.346 40.0047L88.893 41.0106L90.4479 43.2568L89.8188 43.6923L88.2639 41.446L86.7185 42.5158L88.361 44.8885L87.7079 45.3406L85.5425 42.2122ZM88.7924 47.4684L93.4836 45.211L92.6632 43.5061L93.3789 43.1617L95.4163 47.3958L94.7006 47.7402L93.8803 46.0353L89.1891 48.2927L88.7924 47.4684ZM90.2221 50.6252L95.9675 48.8949L97.0646 52.5381L96.3042 52.7671L95.472 50.0039L93.7799 50.5135L94.5676 53.1294L93.835 53.35L93.0473 50.7341L91.2476 51.2761L92.0797 54.0393L91.3193 54.2683L90.2221 50.6252Z" fill="white"/>
<path d="M33.7257 85.8945C33.4266 85.5595 33.218 85.2199 33.1 84.8755C32.9841 84.5293 32.9566 84.1989 33.0176 83.8843C33.0786 83.5697 33.2249 83.2903 33.4566 83.0462L33.4911 83.0099L34.0921 83.6829L34.0639 83.7137C33.9403 83.8501 33.8694 84.01 33.8512 84.1935C33.8351 84.3752 33.8693 84.5695 33.9538 84.7765C34.0383 84.9835 34.171 85.1883 34.352 85.3909C34.5218 85.5812 34.7023 85.7229 34.8934 85.8161C35.0844 85.9094 35.2706 85.9513 35.4517 85.9419C35.6349 85.9307 35.7958 85.8632 35.9343 85.7395L35.9374 85.7367C36.1091 85.5834 36.1936 85.3909 36.1909 85.1591C36.1904 84.9254 36.0892 84.6311 35.8874 84.2761L35.5552 83.6919C35.248 83.1523 35.1075 82.685 35.1338 82.2899C35.16 81.8948 35.3386 81.5495 35.6694 81.2541L35.6725 81.2513C35.9307 81.0244 36.219 80.8915 36.5373 80.8525C36.8574 80.8156 37.1812 80.8702 37.5087 81.0163C37.8362 81.1624 38.1402 81.3926 38.4209 81.7069C38.7016 82.0212 38.8924 82.3451 38.9933 82.6787C39.0981 83.0125 39.1184 83.3307 39.0542 83.6333C38.9921 83.9341 38.8516 84.1971 38.6327 84.4223L38.5951 84.4615L37.9996 83.7947L38.0344 83.7524C38.1419 83.623 38.2062 83.4745 38.2275 83.3069C38.2487 83.1392 38.2253 82.9632 38.1572 82.7787C38.093 82.5945 37.9786 82.4123 37.814 82.2322C37.6571 82.0564 37.4898 81.9233 37.3124 81.8328C37.1388 81.7425 36.9654 81.7022 36.792 81.7121C36.6226 81.7222 36.4666 81.7909 36.3239 81.9183L36.3208 81.9211C36.1554 82.0688 36.0732 82.2556 36.0742 82.4814C36.077 82.7093 36.1767 82.9957 36.3732 83.3406L36.7022 83.9275C36.9149 84.2988 37.0523 84.6295 37.1145 84.9197C37.1784 85.2119 37.1704 85.4755 37.0904 85.7105C37.0124 85.9437 36.8628 86.1591 36.6416 86.3566L36.6385 86.3594C36.3532 86.6142 36.0444 86.7637 35.712 86.8077C35.3816 86.8538 35.045 86.7995 34.7023 86.6447C34.3614 86.4919 34.0359 86.2419 33.7257 85.8945ZM36.5935 88.654L40.3862 84.0045L43.3344 86.4094L42.8324 87.0248L40.5962 85.2007L39.4792 86.5702L41.5961 88.297L41.1125 88.8899L38.9956 87.163L37.8076 88.6194L40.0437 90.4435L39.5417 91.0589L36.5935 88.654ZM43.2463 93.4618C42.7404 93.1796 42.3667 92.8251 42.1254 92.3985C41.8878 91.9708 41.7846 91.4958 41.8156 90.9735C41.8491 90.4525 42.0218 89.9124 42.3338 89.3532L42.3378 89.3459C42.6525 88.7818 43.0232 88.3506 43.4499 88.0522C43.8766 87.7538 44.3349 87.5952 44.8247 87.5764C45.3169 87.5589 45.8124 87.6893 46.3111 87.9674C46.8147 88.2483 47.1871 88.6021 47.4284 89.0287C47.6698 89.4554 47.7737 89.9292 47.7402 90.4501C47.7105 90.97 47.539 91.5108 47.2257 92.0724L47.2217 92.0797C46.9097 92.6389 46.5409 93.0696 46.1153 93.3718C45.6909 93.6716 45.2332 93.8321 44.742 93.8533C44.2509 93.8745 43.7523 93.744 43.2463 93.4618ZM43.6434 92.75C43.9775 92.9364 44.3121 93.0136 44.6474 92.9816C44.984 92.9471 45.3028 92.8139 45.6037 92.5818C45.907 92.351 46.1728 92.031 46.401 91.6219L46.405 91.6146C46.6359 91.2006 46.7692 90.8052 46.8049 90.4283C46.8443 90.0504 46.7889 89.7115 46.6386 89.4119C46.4897 89.1098 46.2482 88.8656 45.9141 88.6792C45.5824 88.4942 45.249 88.4177 44.9137 88.4497C44.5798 88.4793 44.2611 88.6095 43.9578 88.8402C43.6559 89.0686 43.3894 89.3897 43.1585 89.8037L43.1545 89.811C42.9263 90.2201 42.7912 90.613 42.7494 90.9896C42.71 91.3676 42.764 91.7088 42.9116 92.0133C43.0629 92.3168 43.3069 92.5623 43.6434 92.75ZM48.4975 93.6025L48.7462 92.8746L50.3044 93.407C50.6874 93.5378 51.0192 93.5399 51.2997 93.4131C51.5803 93.2863 51.7811 93.0459 51.9021 92.6917L51.9048 92.6839C52.0276 92.3245 52.0164 92.0101 51.8711 91.7408C51.7259 91.4714 51.4617 91.2714 51.0787 91.1405L49.5205 90.6081L49.7719 89.8723L51.5466 90.4786C51.9164 90.605 52.2153 90.7935 52.4431 91.0442C52.6735 91.2958 52.8208 91.5892 52.8849 91.9246C52.9499 92.2573 52.9192 92.6086 52.7929 92.9785L52.7902 92.9864C52.6638 93.3562 52.4727 93.6542 52.2167 93.8802C51.9608 94.1062 51.6643 94.2495 51.3272 94.3101C50.9937 94.369 50.6419 94.3352 50.2721 94.2089L48.4975 93.6025ZM47.3991 95.4024L49.3391 89.7244L50.2087 90.0215L48.2687 95.6995L47.3991 95.4024ZM53.1238 97.1868L54.1148 91.269L56.4442 91.659C56.8461 91.7263 57.1807 91.8597 57.4481 92.059C57.7186 92.2561 57.9108 92.5019 58.0245 92.7964C58.1382 93.0909 58.1644 93.4213 58.103 93.7877L58.1017 93.7959C58.0348 94.195 57.8748 94.5294 57.6217 94.799C57.369 95.0659 57.0519 95.2306 56.6704 95.2932L57.594 97.9354L56.5482 97.7602L55.7202 95.2775C55.712 95.2761 55.7038 95.2747 55.6956 95.2733C55.6874 95.272 55.6792 95.2706 55.671 95.2692L54.412 95.0584L54.0302 97.3386L53.1238 97.1868ZM54.5363 94.3161L55.8691 94.5393C56.2246 94.5988 56.5147 94.5532 56.7395 94.4025C56.9674 94.2496 57.1098 94.0036 57.1666 93.6646L57.168 93.6564C57.2234 93.3256 57.1657 93.0489 56.995 92.8263C56.8242 92.6038 56.5584 92.4623 56.1975 92.4019L54.8934 92.1835L54.5363 94.3161ZM59.2067 98.0453L59.2439 92.0452L63.0486 92.0688L63.0436 92.863L60.1579 92.8451L60.1469 94.6123L62.8788 94.6292L62.8741 95.3943L60.1422 95.3774L60.1305 97.2568L63.0163 97.2747L63.0113 98.0689L59.2067 98.0453ZM66.8397 97.7582C66.3959 97.8266 65.9974 97.8165 65.6444 97.7279C65.2909 97.6366 64.9988 97.4796 64.7682 97.2571C64.5376 97.0346 64.383 96.7598 64.3045 96.4325L64.2928 96.3838L65.1846 96.2463L65.195 96.2868C65.2421 96.4646 65.3376 96.6112 65.4816 96.7264C65.6251 96.8389 65.8067 96.9161 66.0264 96.958C66.246 96.9999 66.49 97.0001 66.7585 96.9587C67.0106 96.9198 67.2278 96.8457 67.41 96.7363C67.5923 96.6268 67.7288 96.4936 67.8196 96.3365C67.91 96.1767 67.941 96.0051 67.9127 95.8215L67.9121 95.8174C67.877 95.59 67.7616 95.4143 67.5657 95.2902C67.3695 95.1634 67.0675 95.0879 66.6599 95.0638L65.9891 95.0242C65.3692 94.9879 64.9008 94.8512 64.5837 94.6139C64.2666 94.3767 64.0743 94.0389 64.0067 93.6006L64.0061 93.5965C63.9565 93.2563 64.002 92.9422 64.1427 92.654C64.2861 92.3654 64.5083 92.1236 64.8092 91.9286C65.1101 91.7335 65.4688 91.6039 65.8852 91.5397C66.3017 91.4755 66.6772 91.4919 67.012 91.589C67.349 91.6829 67.6269 91.8392 67.8458 92.0579C68.0642 92.2738 68.2082 92.5349 68.2779 92.8411L68.2902 92.8939L67.4066 93.0301L67.3902 92.978C67.3402 92.8174 67.2507 92.6825 67.1217 92.5734C66.9926 92.4643 66.8322 92.388 66.6404 92.3447C66.4509 92.2982 66.2359 92.2949 65.9952 92.3348C65.7623 92.3707 65.5596 92.4384 65.387 92.5379C65.2167 92.6343 65.0885 92.7578 65.0024 92.9086C64.9185 93.0561 64.8912 93.2244 64.9203 93.4135L64.921 93.4176C64.9547 93.6367 65.0666 93.8074 65.2565 93.9296C65.4492 94.0514 65.7437 94.1238 66.1399 94.1468L66.8114 94.1906C67.2386 94.2145 67.5908 94.2794 67.868 94.3853C68.1479 94.4908 68.3646 94.6411 68.5181 94.8362C68.6712 95.0286 68.7703 95.2714 68.8155 95.5645L68.8162 95.5686C68.8745 95.9467 68.8316 96.2871 68.6875 96.5898C68.5462 96.8921 68.3173 97.1447 68.0008 97.3478C67.687 97.5504 67.3 97.6872 66.8397 97.7582ZM72.6977 96.3604C72.2707 96.4995 71.8758 96.5538 71.5131 96.5232C71.1495 96.49 70.836 96.3822 70.5725 96.1998C70.309 96.0174 70.1122 95.7711 69.9819 95.4607L69.9625 95.4145L70.8205 95.1351L70.8373 95.1734C70.9124 95.3413 71.0303 95.4705 71.191 95.5611C71.3508 95.649 71.5425 95.6959 71.766 95.7018C71.9895 95.7077 72.2304 95.6686 72.4887 95.5845C72.7312 95.5055 72.9336 95.3973 73.0958 95.2599C73.2581 95.1225 73.3713 94.969 73.4356 94.7994C73.499 94.6271 73.502 94.4527 73.4445 94.2761L73.4432 94.2721C73.3719 94.0534 73.2297 93.8985 73.0164 93.8076C72.8023 93.7141 72.4921 93.6883 72.0859 93.7302L71.4175 93.7993C70.7999 93.8634 70.3155 93.804 69.9643 93.621C69.6132 93.4379 69.3689 93.1356 69.2316 92.7138L69.2303 92.7099C69.1265 92.3822 69.1208 92.0648 69.2132 91.7577C69.3082 91.4498 69.4885 91.1754 69.754 90.9344C70.0195 90.6933 70.3526 90.5076 70.7533 90.3771C71.1539 90.2466 71.5272 90.2023 71.8732 90.2441C72.221 90.2824 72.5205 90.3919 72.7717 90.5725C73.0221 90.7504 73.2063 90.9848 73.3244 91.2758L73.3451 91.3259L72.4951 91.6028L72.4704 91.554C72.3952 91.4036 72.2851 91.2849 72.1402 91.198C71.9953 91.1111 71.8246 91.0617 71.6284 91.0498C71.4339 91.0345 71.2211 91.0659 70.99 91.144C70.7659 91.217 70.5767 91.3165 70.4225 91.4426C70.27 91.5651 70.1634 91.7077 70.1026 91.8704C70.0437 92.0295 70.0438 92.2 70.103 92.3819L70.1043 92.3859C70.173 92.5967 70.3109 92.7471 70.5181 92.8371C70.7279 92.9262 71.0301 92.9502 71.4249 92.9091L72.0947 92.844C72.5201 92.7987 72.8782 92.806 73.1688 92.8659C73.4621 92.9249 73.7002 93.0383 73.8832 93.2061C74.0652 93.3713 74.2022 93.5949 74.2941 93.8769L74.2954 93.8809C74.4138 94.2446 74.4264 94.5875 74.333 94.9094C74.2422 95.2305 74.057 95.5168 73.7774 95.7682C73.5004 96.0188 73.1405 96.2162 72.6977 96.3604Z" fill="white"/>
<path d="M52.5871 55.518C51.9956 55.3595 51.5039 55.128 51.112 54.8234C50.721 54.5151 50.4428 54.1588 50.2772 53.7544C50.1116 53.35 50.0698 52.922 50.1516 52.4704L50.1638 52.4032L51.3523 52.7217L51.3431 52.7779C51.3041 53.0257 51.3427 53.2611 51.4591 53.4841C51.5765 53.7034 51.7607 53.8995 52.0118 54.0724C52.2628 54.2454 52.5673 54.3798 52.9251 54.4756C53.2611 54.5657 53.5728 54.5925 53.8605 54.556C54.1481 54.5196 54.3917 54.4283 54.5913 54.2822C54.7919 54.1325 54.9249 53.9353 54.9905 53.6906L54.992 53.6852C55.0732 53.3821 55.0257 53.0993 54.8494 52.8369C54.6742 52.5708 54.3388 52.3107 53.8434 52.0566L53.0279 51.6385C52.2742 51.2526 51.7647 50.8245 51.4994 50.3543C51.234 49.884 51.1796 49.3567 51.3362 48.7725L51.3376 48.767C51.4626 48.3153 51.6921 47.9482 52.026 47.6659C52.3636 47.3846 52.7737 47.2049 53.2565 47.1268C53.7392 47.0487 54.258 47.084 54.813 47.2328C55.368 47.3815 55.8277 47.6084 56.1921 47.9134C56.5612 48.2158 56.8222 48.5636 56.9751 48.9568C57.129 49.3463 57.1653 49.7513 57.0839 50.1717L57.0703 50.2444L55.8928 49.9289L55.9009 49.8547C55.9267 49.6269 55.8891 49.4094 55.7881 49.2023C55.687 48.9952 55.5287 48.8119 55.3132 48.6524C55.1023 48.4902 54.8357 48.3679 54.5134 48.2854C54.203 48.2023 53.9128 48.1754 53.6427 48.2048C53.3773 48.2315 53.1494 48.3152 52.959 48.456C52.7733 48.594 52.6467 48.7891 52.5792 49.041L52.5777 49.0465C52.4994 49.3386 52.5453 49.6131 52.7152 49.8699C52.8887 50.1278 53.2164 50.3799 53.6982 50.6264L54.5122 51.05C55.0323 51.3146 55.4362 51.5891 55.7239 51.8737C56.0153 52.1591 56.2031 52.4658 56.2875 52.7937C56.3728 53.1179 56.3631 53.4753 56.2584 53.866L56.257 53.8715C56.122 54.3754 55.8814 54.7766 55.5353 55.0752C55.1928 55.3748 54.7682 55.5644 54.2617 55.6439C53.7587 55.7244 53.2006 55.6824 52.5871 55.518ZM57.2666 56.5664L59.3843 48.6631L64.3958 50.0059L64.1155 51.052L60.3144 50.0335L59.6907 52.3613L63.2891 53.3255L63.0191 54.3332L59.4207 53.369L58.7573 55.8447L62.5584 56.8631L62.2781 57.9093L57.2666 56.5664ZM67.3587 59.4761C66.5956 59.2716 65.9833 58.9275 65.522 58.4439C65.0653 57.9575 64.7704 57.3639 64.6373 56.6629C64.5078 55.9629 64.5561 55.1912 64.7821 54.3478L64.7851 54.3368C65.013 53.486 65.3594 52.7922 65.8241 52.2554C66.2889 51.7185 66.842 51.356 67.4833 51.1678C68.1283 50.9806 68.8269 50.9878 69.5791 51.1893C70.3386 51.3928 70.949 51.7364 71.4104 52.2201C71.8717 52.7037 72.1671 53.2955 72.2965 53.9955C72.4306 54.6928 72.3841 55.465 72.1571 56.3121L72.1542 56.3231C71.9282 57.1666 71.5842 57.859 71.1221 58.4005C70.661 58.9384 70.1092 59.3032 69.4669 59.495C68.8246 59.6869 68.1218 59.6805 67.3587 59.4761ZM67.6463 58.4026C68.1502 58.5376 68.6185 58.528 69.0511 58.3739C69.4847 58.2162 69.8618 57.9337 70.1822 57.5264C70.5063 57.1202 70.7511 56.6085 70.9164 55.9914L70.9193 55.9805C71.0866 55.3561 71.131 54.7888 71.0525 54.2786C70.9786 53.7657 70.7924 53.3361 70.4937 52.99C70.1961 52.6402 69.7954 52.3978 69.2915 52.2628C68.7912 52.1288 68.3248 52.1388 67.8922 52.2929C67.4605 52.4434 67.0826 52.7217 66.7585 53.128C66.4354 53.5306 66.1902 54.0441 66.0229 54.6685L66.0199 54.6794C65.8546 55.2965 65.807 55.861 65.8773 56.3729C65.9512 56.8858 66.1365 57.319 66.4331 57.6724C66.7344 58.0232 67.1388 58.2666 67.6463 58.4026ZM40.3106 67.5522L42.4283 59.6489L45.5393 60.4825C46.076 60.6263 46.5128 60.851 46.8497 61.1565C47.1912 61.4593 47.4199 61.818 47.5358 62.2326C47.6517 62.6472 47.6441 63.0991 47.513 63.5884L47.5101 63.5993C47.3673 64.1324 47.1064 64.5654 46.7276 64.8983C46.3498 65.2276 45.8979 65.4098 45.3719 65.445L46.2806 69.1519L44.8839 68.7777L44.0842 65.2995C44.0732 65.2966 44.0623 65.2936 44.0513 65.2907C44.0404 65.2878 44.0294 65.2848 44.0185 65.2819L42.337 64.8313L41.5211 67.8766L40.3106 67.5522ZM42.6026 63.84L44.3827 64.317C44.8574 64.4442 45.2571 64.4202 45.5819 64.245C45.9113 64.0671 46.1367 63.7518 46.258 63.2991L46.2609 63.2881C46.3793 62.8463 46.3372 62.4632 46.1345 62.1389C45.9318 61.8145 45.5895 61.5878 45.1075 61.4586L43.3658 60.9919L42.6026 63.84ZM47.7923 69.5569L49.91 61.6536L54.9214 62.9964L54.6411 64.0425L50.8401 63.024L50.2164 65.3518L53.8148 66.316L53.5447 67.3237L49.9463 66.3595L49.283 68.8352L53.084 69.8537L52.8037 70.8998L47.7923 69.5569ZM53.9649 71.2109L58.9416 64.0736L59.911 64.3334L59.5412 65.7136L59.1742 65.6152L55.2355 71.5514L53.9649 71.2109ZM55.9094 69.4308L56.5087 68.5523L60.1072 69.5165L60.187 70.577L55.9094 69.4308ZM59.7103 72.7504L59.2673 65.6402L59.6372 64.26L60.2396 64.4214L60.9809 73.0908L59.7103 72.7504ZM62.3502 73.4577L64.4679 65.5544L67.3105 66.316C68.0955 66.5264 68.724 66.8611 69.1958 67.3202C69.6677 67.7793 69.9714 68.34 70.1069 69.0025C70.2461 69.666 70.2047 70.4122 69.9826 71.241L69.9797 71.252C69.7556 72.0881 69.4165 72.7623 68.9622 73.2746C68.5116 73.7879 67.9667 74.1271 67.3276 74.2924C66.6931 74.4551 65.9815 74.4307 65.1928 74.2194L62.3502 73.4577ZM63.8409 72.736L65.3416 73.1381C65.8966 73.2868 66.3998 73.3003 66.8512 73.1786C67.3035 73.0532 67.6896 72.8025 68.0096 72.4265C68.3305 72.0467 68.5731 71.5502 68.7375 70.9367L68.7404 70.9258C68.9038 70.316 68.9392 69.7678 68.8465 69.2812C68.7584 68.7919 68.5494 68.3817 68.2193 68.0506C67.8903 67.7159 67.4501 67.4747 66.8987 67.3269L65.398 66.9248L63.8409 72.736ZM72.3513 76.1375L73.223 72.8842L71.6812 67.4872L73.0285 67.8482L74.1031 71.8344L74.1962 71.8593L77.1144 68.943L78.4617 69.304L74.428 73.207L73.5562 76.4604L72.3513 76.1375Z" fill="white"/>
<path d="M94.4362 67.3607C94.4478 67.3485 94.4629 67.3396 94.48 67.3352C94.497 67.3307 94.5153 67.3309 94.5327 67.3355C94.5501 67.3402 94.566 67.3492 94.5785 67.3616C94.5911 67.374 94.5998 67.3892 94.6037 67.4056L94.9923 69.0496C94.9957 69.0639 95.0027 69.0773 95.0127 69.0888C95.0228 69.1003 95.0356 69.1094 95.05 69.1154L96.718 69.8092C96.7346 69.8161 96.749 69.8271 96.7596 69.841C96.7701 69.8549 96.7765 69.871 96.7778 69.8876C96.7791 69.9043 96.7754 69.9207 96.7671 69.9351C96.7588 69.9495 96.7463 69.9613 96.7308 69.9692L95.1793 70.7521C95.1658 70.7589 95.1545 70.7687 95.1462 70.7807C95.138 70.7927 95.1331 70.8065 95.132 70.821L95.0043 72.4791C95.003 72.4956 94.9967 72.5112 94.9862 72.5242C94.9756 72.5372 94.9613 72.547 94.9447 72.5526C94.9281 72.5582 94.91 72.5593 94.8924 72.5559C94.8747 72.5524 94.8583 72.5445 94.8448 72.533L93.4974 71.373C93.4857 71.363 93.4717 71.3556 93.4566 71.3516C93.4415 71.3475 93.4257 71.3469 93.4106 71.3497L91.6637 71.6806C91.6463 71.6839 91.628 71.6826 91.6109 71.6768C91.5938 71.671 91.5786 71.661 91.567 71.6478C91.5554 71.6347 91.5478 71.6189 91.5452 71.6024C91.5426 71.5858 91.545 71.5691 91.5521 71.5541L92.2706 70.0542C92.2769 70.0413 92.2796 70.0269 92.2786 70.0124C92.2775 69.9979 92.2726 69.9837 92.2644 69.971L91.3123 68.5173C91.3028 68.5027 91.2978 68.4863 91.2978 68.4696C91.2978 68.453 91.3029 68.4369 91.3123 68.4232C91.3218 68.4094 91.3354 68.3986 91.3514 68.3919C91.3675 68.3852 91.3855 68.3829 91.4034 68.3852L93.1947 68.6183C93.2103 68.6203 93.2259 68.6188 93.2404 68.6139C93.2548 68.609 93.2676 68.6009 93.2776 68.5902L94.4362 67.3607Z" fill="white"/>
<path d="M29.2569 49.8959C29.2685 49.8836 29.2837 49.8748 29.3007 49.8703C29.3178 49.8659 29.336 49.866 29.3534 49.8707C29.3709 49.8753 29.3867 49.8844 29.3993 49.8968C29.4118 49.9091 29.4205 49.9244 29.4244 49.9408L29.8131 51.5848C29.8164 51.5991 29.8234 51.6125 29.8335 51.624C29.8435 51.6354 29.8563 51.6446 29.8708 51.6506L31.5387 52.3444C31.5553 52.3513 31.5697 52.3623 31.5803 52.3762C31.5909 52.39 31.5972 52.4062 31.5985 52.4228C31.5999 52.4394 31.5962 52.4559 31.5879 52.4703C31.5796 52.4847 31.567 52.4965 31.5516 52.5043L30.0001 53.2872C29.9866 53.294 29.9752 53.3039 29.967 53.3159C29.9587 53.3279 29.9538 53.3417 29.9528 53.3561L29.8251 55.0143C29.8237 55.0308 29.8174 55.0464 29.8069 55.0593C29.7964 55.0723 29.782 55.0822 29.7654 55.0878C29.7489 55.0933 29.7308 55.0945 29.7131 55.091C29.6955 55.0876 29.679 55.0796 29.6656 55.0682L28.3181 53.9081C28.3064 53.8981 28.2925 53.8908 28.2774 53.8867C28.2622 53.8827 28.2465 53.882 28.2314 53.8849L26.4844 54.2158C26.467 54.2191 26.4487 54.2178 26.4316 54.212C26.4145 54.2062 26.3993 54.1961 26.3877 54.183C26.3761 54.1698 26.3686 54.1541 26.366 54.1375C26.3633 54.1209 26.3657 54.1042 26.3728 54.0893L27.0913 52.5894C27.0976 52.5764 27.1004 52.562 27.0993 52.5475C27.0982 52.533 27.0934 52.5189 27.0852 52.5062L26.133 51.0524C26.1236 51.0379 26.1186 51.0214 26.1186 51.0048C26.1186 50.9882 26.1236 50.9721 26.1331 50.9583C26.1426 50.9446 26.1561 50.9338 26.1722 50.9271C26.1883 50.9203 26.2063 50.918 26.2241 50.9203L28.0155 51.1535C28.031 51.1555 28.0467 51.154 28.0611 51.1491C28.0755 51.1442 28.0883 51.136 28.0984 51.1254L29.2569 49.8959Z" fill="white"/>
</svg>
